<?xml version="1.0" encoding="UTF-8"?>
<svg width="21px" height="24px" viewBox="0 0 21 24" version="1.1" xmlns="http://www.w3.org/2000/svg" xmlns:xlink="http://www.w3.org/1999/xlink">
    <title>Group 15</title>
    <g id="Fixed-Asset-useful-life" stroke="none" stroke-width="1" fill="none" fill-rule="evenodd">
        <g id="perm_data_setting-24px">
            <path d="M10,0 L16,6 L16,11 L15.99,11 C15.3026608,11 14.6358951,11.0861513 13.9998853,11.2482716 L14,7 L9,7 L9,2 L2,2 L2,18 L8.05150162,18.0004147 C8.01090628,18.3278058 7.99,18.6614066 7.99,19 C7.99,19.33894 8.0109491,19.6728771 8.05162633,20.0005906 L1.99,20 C0.89,20 0,19.1 0,18 L0,18 L0,2 C0,0.9 0.9,0 2,0 L2,0 L10,0 Z M9.73929221,13.9998466 C9.25792353,14.6013437 8.86176623,15.2741714 8.56890871,16.0002412 L4,16 L4,14 Z M12,10 L12,12 L4,12 L4,10 L12,10 Z" id="Combined-Shape" fill="#2E2E38"></path>
            <path d="M19.58375,19.49 C19.60375,19.33 19.62375,19.17 19.62375,19 C19.62375,18.83 19.61375,18.67 19.58375,18.51 L20.64375,17.68 C20.73375,17.6 20.76375,17.47 20.70375,17.36 L19.70375,15.63 C19.64375,15.52 19.51375,15.48 19.39375,15.52 L18.15375,16.02 C17.89375,15.82 17.61375,15.65 17.30375,15.53 L17.11375,14.21 C17.10375,14.09 16.99375,14 16.87375,14 L14.87375,14 C14.75375,14 14.64375,14.09 14.62375,14.21 L14.43375,15.53 C14.13375,15.66 13.84375,15.82 13.58375,16.02 L12.34375,15.52 C12.23375,15.48 12.10375,15.52 12.03375,15.63 L11.03375,17.36 C10.97375,17.47 10.99375,17.6 11.09375,17.68 L12.15375,18.51 C12.13375,18.67 12.12375,18.83 12.12375,19 C12.12375,19.17 12.13375,19.33 12.15375,19.49 L11.09375,20.32 C11.00375,20.4 10.97375,20.53 11.03375,20.64 L12.03375,22.37 C12.09375,22.48 12.22375,22.52 12.34375,22.48 L13.58375,21.98 C13.84375,22.18 14.12375,22.35 14.43375,22.47 L14.62375,23.79 C14.64375,23.91 14.74375,24 14.87375,24 L16.87375,24 C16.99375,24 17.10375,23.91 17.12375,23.79 L17.31375,22.47 C17.61375,22.34 17.90375,22.18 18.15375,21.98 L19.40375,22.48 C19.51375,22.52 19.64375,22.48 19.71375,22.37 L20.71375,20.64 C20.77375,20.53 20.74375,20.4 20.65375,20.32 L19.58375,19.49 Z" id="Path" fill="#000000" fill-rule="nonzero"></path>
            <path d="M15.99,20.5 C15.16,20.5 14.49,19.83 14.49,19 C14.49,18.17 15.16,17.5 15.99,17.5 C16.82,17.5 17.49,18.17 17.49,19 C17.49,19.83 16.82,20.5 15.99,20.5 Z" id="Path" fill="#FFFFFF" fill-rule="nonzero"></path>
        </g>
    </g>
</svg>