<?xml version="1.0" encoding="utf-8"?>
<!-- Generator: Adobe Illustrator 24.2.3, SVG Export Plug-In . SVG Version: 6.00 Build 0)  -->
<svg version="1.1" id="Capa_1" xmlns="http://www.w3.org/2000/svg" xmlns:xlink="http://www.w3.org/1999/xlink" x="0px" y="0px"
	 viewBox="0 0 24 24" style="enable-background:new 0 0 24 24;" xml:space="preserve">
<style type="text/css">
	.st0{fill:none;stroke:#000000;stroke-width:1.0557;stroke-miterlimit:10;}
	.st1{fill:#FFFFFF;}
</style>
<rect x="7.7" y="1.6" width="5.8" height="3.4"/>
<line class="st0" x1="10.6" y1="5" x2="10.6" y2="6.8"/>
<rect x="3.7" y="9.2" width="5.8" height="3.4"/>
<rect x="6.1" y="12.6" width="1.1" height="1.9"/>
<rect x="6.1" y="6.8" width="1.1" height="2.6"/>
<rect x="14.1" y="6.8" width="1.1" height="2.6"/>
<rect x="6.7" y="6.8" width="7.8" height="1.1"/>
<rect x="6.1" y="13.6" width="1.1" height="1.4"/>
<path d="M17.9,12.3c-3.2,0-5.8,2.6-5.8,5.8s2.6,5.8,5.8,5.8s5.8-2.6,5.8-5.8l0,0C23.7,14.9,21.1,12.3,17.9,12.3z M18.4,21h-1.2v-1.2
	h1.2V21z M18.4,18.7h-1.2v-3.5h1.2V18.7z"/>
<rect x="17.3" y="15.2" class="st1" width="1.2" height="3.5"/>
<rect x="17.3" y="19.8" class="st1" width="1.2" height="1.2"/>
<g>
	<path d="M17.5,10.8V9.2h-5.8v3.4H13C14.2,11.5,15.8,10.9,17.5,10.8z"/>
	<path d="M10.1,16.4v1.5H7.7v3.4h3.5c-0.4-0.9-0.7-2-0.7-3.1c0-1.3,0.3-2.5,0.9-3.6h-0.3H10H3.8H2.7l0,0v1.1l0,0v0.6v0.1V18H0.3v3.4
		h5.8V18H3.8v-1.6v-0.1v-0.6h6.3V16V16.4z"/>
</g>
</svg>
